<?xml version="1.0" encoding="UTF-8" standalone="no"?>
<!-- Created with Inkscape (http://www.inkscape.org/) -->

<svg
   width="30.234701mm"
   height="29.942818mm"
   viewBox="0 0 30.2347 29.942816"
   version="1.1"
   id="svg1"
   xml:space="preserve"
   inkscape:export-filename="bitmap1.svg"
   inkscape:export-xdpi="96"
   inkscape:export-ydpi="96"
   xmlns:inkscape="http://www.inkscape.org/namespaces/inkscape"
   xmlns:sodipodi="http://sodipodi.sourceforge.net/DTD/sodipodi-0.dtd"
   xmlns="http://www.w3.org/2000/svg"
   xmlns:svg="http://www.w3.org/2000/svg"><sodipodi:namedview
     id="namedview1"
     pagecolor="#ffffff"
     bordercolor="#000000"
     borderopacity="0.25"
     inkscape:showpageshadow="2"
     inkscape:pageopacity="0.0"
     inkscape:pagecheckerboard="0"
     inkscape:deskcolor="#d1d1d1"
     inkscape:document-units="mm"
     showguides="true"><inkscape:page
       x="0"
       y="-1.3961729e-13"
       width="30.234699"
       height="29.942818"
       id="page2"
       margin="0"
       bleed="0" /></sodipodi:namedview><defs
     id="defs1" /><g
     inkscape:label="Capa 1"
     inkscape:groupmode="layer"
     id="layer1"
     transform="translate(-97.314504,-86.633898)"><path
       style="fill:#800000"
       d="m 97.546355,116.18583 c -0.0889,-0.22998 -0.17742,-6.95681 -0.19675,-14.94853 l -0.0351,-14.530403 15.081205,-0.0365 15.0812,-0.0365 0.0362,14.948903 0.0361,14.94892 -14.9206,0.0361 c -13.361565,0.0323 -14.937485,-0.008 -15.082215,-0.38204 z m 17.527675,-5.35147 1.6388,-0.17529 -0.082,-1.21754 -0.082,-1.21753 -3.83677,-0.12461 c -4.11079,-0.1335 -5.19726,-0.44517 -6.53657,-1.87509 -2.38264,-2.54387 -2.13675,-7.07463 0.51074,-9.41051 1.39242,-1.22854 2.57239,-1.45278 7.19718,-1.36773 3.63012,0.0667 4.13094,0.13239 4.79831,0.62883 1.56803,1.16642 1.38119,3.51699 -0.33701,4.23978 -0.47909,0.20154 -1.47021,0.36788 -2.20249,0.36966 l -1.33141,0.003 0.004,1.71979 0.004,1.71979 0.88691,-0.002 c 1.07406,-0.003 2.46115,0.88066 3.27903,2.08802 0.48209,0.71166 0.60465,1.25663 0.60815,2.70422 l 0.004,1.81295 1.4552,-0.004 1.45521,-0.004 -0.007,-1.91822 c -0.008,-2.06107 -0.62928,-3.77601 -1.93467,-5.33827 l -0.64949,-0.77731 0.80733,-0.5469 c 1.27799,-0.86573 1.88762,-2.1562 1.88365,-3.9873 -0.005,-2.2965 -0.9428,-3.80485 -2.98553,-4.8018 -1.50939,-0.73667 -1.57007,-0.74345 -6.55057,-0.7314 -4.95752,0.012 -5.0477,0.0223 -6.51795,0.74878 -1.73944,0.85944 -3.46947,2.63611 -4.27501,4.39023 -0.46315,1.00854 -0.56755,1.73073 -0.56233,3.88987 0.006,2.46356 0.0684,2.77657 0.88169,4.41854 0.93003,1.87768 2.44679,3.41672 4.03369,4.09292 1.79232,0.76374 5.11364,1.02814 8.44241,0.67208 z"
       id="path2-5"
       sodipodi:nodetypes="cccccccsccccccssscsscccccscccccscsssscscsscc" /></g></svg>
