<?xml version="1.0" encoding="UTF-8" standalone="no"?>
<!-- Created with Inkscape (http://www.inkscape.org/) -->

<svg
   width="168.59349mm"
   height="29.94281mm"
   viewBox="0 0 168.59348 29.942809"
   version="1.1"
   id="svg1"
   xml:space="preserve"
   inkscape:export-filename="logo_largo.png"
   inkscape:export-xdpi="96"
   inkscape:export-ydpi="96"
   xmlns:inkscape="http://www.inkscape.org/namespaces/inkscape"
   xmlns:sodipodi="http://sodipodi.sourceforge.net/DTD/sodipodi-0.dtd"
   xmlns="http://www.w3.org/2000/svg"
   xmlns:svg="http://www.w3.org/2000/svg"><sodipodi:namedview
     id="namedview1"
     pagecolor="#ffffff"
     bordercolor="#000000"
     borderopacity="0.25"
     inkscape:showpageshadow="2"
     inkscape:pageopacity="0.0"
     inkscape:pagecheckerboard="0"
     inkscape:deskcolor="#d1d1d1"
     inkscape:document-units="mm"
     showguides="true"><inkscape:page
       x="2.8013849e-23"
       y="0"
       width="168.59348"
       height="29.942808"
       id="page2"
       margin="0"
       bleed="0" /></sodipodi:namedview><defs
     id="defs1" /><g
     inkscape:label="Capa 1"
     inkscape:groupmode="layer"
     id="layer1"
     transform="translate(-39.61706,-93.761899)"><path
       style="fill:#800000"
       d="m 178.20769,123.31382 c -0.0889,-0.22998 -0.17742,-6.95681 -0.19675,-14.94853 l -0.0351,-14.530391 15.08121,-0.0365 15.0812,-0.0365 0.0362,14.948891 0.0361,14.94892 -14.9206,0.0361 c -13.36157,0.0323 -14.93749,-0.008 -15.08222,-0.38204 z m 17.52768,-5.35147 1.6388,-0.17529 -0.082,-1.21754 -0.082,-1.21753 -3.83677,-0.12461 c -4.1108,-0.1335 -5.19726,-0.44517 -6.53658,-1.87509 -2.38264,-2.54387 -2.13675,-7.07462 0.51074,-9.4105 1.39242,-1.22854 2.5724,-1.45278 7.19718,-1.36773 3.63013,0.0667 4.13095,0.13239 4.79831,0.62883 1.56803,1.16642 1.38119,3.51698 -0.33701,4.23977 -0.47909,0.20154 -1.47021,0.36788 -2.20249,0.36966 l -1.33141,0.003 0.004,1.71979 0.004,1.71979 0.88691,-0.002 c 1.07406,-0.003 2.46115,0.88066 3.27903,2.08802 0.48209,0.71166 0.60465,1.25663 0.60815,2.70422 l 0.004,1.81295 1.4552,-0.004 1.45521,-0.004 -0.007,-1.91822 c -0.008,-2.06107 -0.62928,-3.77601 -1.93467,-5.33827 l -0.64949,-0.77731 0.80733,-0.5469 c 1.27799,-0.86573 1.88762,-2.1562 1.88365,-3.98729 -0.005,-2.2965 -0.9428,-3.80485 -2.98553,-4.8018 -1.50939,-0.736671 -1.57007,-0.743451 -6.55057,-0.731401 -4.95752,0.012 -5.0477,0.0223 -6.51795,0.748781 -1.73944,0.85944 -3.46947,2.63611 -4.27501,4.39023 -0.46315,1.00854 -0.56755,1.73072 -0.56233,3.88986 0.006,2.46356 0.0684,2.77657 0.88169,4.41854 0.93003,1.87768 2.44679,3.41672 4.03369,4.09292 1.79232,0.76374 5.11364,1.02814 8.44241,0.67208 z M 39.81305,113.0498 c -0.09413,-0.67494 -0.176791,-3.53225 -0.183603,-6.34958 l -0.01239,-5.12242 3.223741,-0.008 c 2.751651,-0.007 3.39496,0.0746 4.392833,0.55466 1.536432,0.7392 2.17648,1.8087 2.182184,3.64642 0.0088,2.81908 -1.796929,4.25405 -5.363919,4.26268 l -2.033124,0.005 0.0051,2.11666 0.0051,2.11667 -1.022367,0.002 c -1.015687,0.002 -1.023486,-0.006 -1.193595,-1.22467 z m 6.608059,-5.81935 c 0.562824,-0.56555 0.652306,-0.84605 0.522064,-1.63658 -0.241008,-1.46275 -0.711637,-1.75974 -2.959825,-1.86782 l -1.980066,-0.0952 0.0052,2.14558 0.0052,2.14557 1.864104,-0.005 c 1.649786,-0.004 1.942195,-0.083 2.543347,-0.68705 z m 6.300142,6.63961 c -1.673174,-0.7237 -2.634821,-2.72285 -2.444876,-5.08261 0.200905,-2.49595 1.892246,-4.06499 4.388329,-4.07103 2.497763,-0.006 4.192966,1.68084 4.356084,4.33469 l 0.06381,1.03779 -3.241081,0.0282 c -2.934037,0.0256 -3.240972,0.0732 -3.239942,0.50327 6.31e-4,0.26128 0.294094,0.76659 0.652147,1.12291 0.75572,0.75208 2.22819,0.86603 3.380052,0.26159 0.644354,-0.33813 0.78351,-0.3275 1.314587,0.10042 0.531617,0.42835 0.553317,0.5278 0.206782,0.94769 -0.925571,1.12153 -3.750293,1.5461 -5.435861,0.81704 z m 4.067924,-5.98792 c -0.697604,-1.98567 -3.091046,-2.13663 -4.057841,-0.25592 -0.218762,0.42555 -0.397582,0.83917 -0.397389,0.91916 1.94e-4,0.08 1.065719,0.14285 2.367825,0.1397 l 2.367483,-0.006 z m 5.665826,5.77348 c -1.264401,-0.80531 -1.912015,-2.24138 -1.916873,-4.25063 -0.0048,-1.97195 0.559746,-3.23209 1.842013,-4.11191 1.121732,-0.76967 2.970503,-0.80477 4.167141,-0.0791 l 0.861165,0.5222 -0.0054,-2.24506 -0.0054,-2.24506 1.195327,-0.003 1.195316,-0.003 -0.05529,6.41629 -0.05539,6.4163 -0.991978,0.0845 c -0.854766,0.0729 -0.992173,0.008 -0.99332,-0.46599 l -0.0013,-0.55052 -1.046494,0.53708 c -1.365949,0.70102 -3.067996,0.69195 -4.189436,-0.0223 z m 3.729338,-1.60193 c 0.961927,-0.51531 1.219552,-1.07997 1.224474,-2.68375 0.0039,-1.28174 -0.102165,-1.63973 -0.646296,-2.18126 -1.129291,-1.12384 -2.957449,-0.79031 -3.711823,0.67716 -1.286314,2.50226 0.878829,5.39578 3.133645,4.18785 z m 14.869696,1.75044 c -1.023536,-0.45195 -1.857349,-1.36214 -2.374896,-2.59245 -0.92525,-2.19945 -0.143785,-4.74998 1.8077,-5.89997 1.30072,-0.76651 3.674397,-0.91122 4.858578,-0.29622 0.960509,0.49884 2.076794,1.70306 2.423749,2.61468 0.582633,1.53086 0.146197,3.78671 -0.973289,5.03069 -1.234985,1.37234 -3.98365,1.91962 -5.741842,1.14327 z m 3.158287,-1.89507 c 1.181509,-0.56417 1.583926,-1.44281 1.489948,-3.25314 -0.05003,-0.96361 -1.419244,-2.15903 -2.470001,-2.15649 -2.704682,0.007 -3.762504,3.89904 -1.442014,5.30624 1.024525,0.6213 1.311746,0.63356 2.422067,0.10339 z m 14.039589,1.85952 c -2.30876,-1.00195 -3.6015,-3.12222 -3.61718,-5.93266 -0.005,-0.96949 0.11679,-2.09816 0.27154,-2.50817 0.8808,-2.33365 3.18819,-3.89135 5.773429,-3.8976 1.83838,-0.004 3.74779,0.58541 4.50483,1.39164 l 0.54511,0.58053 -0.78716,0.88217 -0.78716,0.88217 -0.95138,-0.72202 c -2.69879,-2.04817 -6.162869,-0.24071 -6.156029,3.21201 0.007,3.59272 3.158009,5.40836 6.048609,3.48538 l 1.10635,-0.73599 0.79219,0.58272 c 0.4357,0.32051 0.79237,0.65714 0.79259,0.74806 8.7e-4,0.36174 -1.50768,1.58634 -2.43413,1.97598 -1.19077,0.5008 -4.005259,0.53158 -5.101609,0.0557 z m 10.553969,0.0826 c -0.85901,-0.34466 -1.6941,-1.56846 -1.69522,-2.48426 -0.002,-2.11275 1.83102,-3.2862 4.68838,-3.00046 l 1.38965,0.13898 -0.16218,-0.70813 c -0.21778,-0.95092 -1.05491,-1.63199 -2.0031,-1.6297 -0.88585,0.002 -2.33716,0.67705 -2.33617,1.08639 10e-4,0.44708 -0.50397,10e-4 -0.9331,-0.82368 -0.39822,-0.76552 -0.39527,-0.77145 0.64964,-1.30772 1.44073,-0.73939 4.0465,-0.7458 5.25514,-0.0129 1.32593,0.804 1.64224,1.86472 1.65112,5.53698 l 0.008,3.1835 -1.18232,0.003 c -0.96429,0.002 -1.15319,-0.0736 -1.02436,-0.41178 0.12554,-0.32952 -0.0255,-0.30219 -0.73559,0.13308 -0.92708,0.56828 -2.55559,0.70371 -3.56959,0.29686 z m 3.44769,-1.64127 c 1.34672,-0.61754 1.19433,-2.22531 -0.22631,-2.38768 -1.42581,-0.16296 -2.50925,0.23742 -2.69794,0.99704 -0.3381,1.36102 1.2951,2.13769 2.92425,1.39064 z m 13.05236,1.6783 c -0.41824,-0.10821 -0.46437,-0.55562 -0.47414,-4.59839 l -0.0108,-4.47849 1.05832,-0.003 c 0.95813,-0.002 1.0585,0.0613 1.05997,0.67237 l 0.002,0.67492 0.88036,-0.67487 c 0.48419,-0.37117 1.26535,-0.75282 1.7359,-0.84812 0.85554,-0.17325 0.85554,-0.17325 0.77371,0.85276 -0.0773,0.97017 -0.13858,1.0353 -1.12473,1.1967 -0.66025,0.10807 -1.2662,0.43158 -1.6515,0.88173 -0.55542,0.64888 -0.608,0.96412 -0.60161,3.60668 0.007,2.83561 -0.005,2.89505 -0.58839,2.8664 -0.32746,-0.0161 -0.80388,-0.0832 -1.0587,-0.14913 z m 7.23854,-0.20435 c -2.0483,-1.12881 -1.64159,-4.43615 0.63881,-5.19487 0.60686,-0.20191 1.57991,-0.2671 2.53361,-0.16975 1.39478,0.14238 1.54826,0.10887 1.54718,-0.33774 -0.004,-1.51828 -2.22575,-2.33153 -3.80709,-1.39335 -0.86859,0.5153 -0.93562,0.51939 -1.33401,0.0813 -0.67678,-0.74421 -0.49227,-1.18313 0.70585,-1.67907 1.41326,-0.58501 3.67003,-0.60461 4.8626,-0.0423 1.44586,0.68182 1.68546,1.44111 1.69497,5.37104 l 0.008,3.45273 -1.07394,0.003 c -0.6486,0.002 -1.00943,-0.10236 -0.91107,-0.26238 0.22077,-0.35915 0.0159,-0.334 -1.09883,0.13494 -1.16178,0.48874 -2.91525,0.50585 -3.76644,0.0368 z m 3.5386,-1.34169 c 1.57342,-0.66189 1.62334,-2.51084 0.0692,-2.56162 -1.45647,-0.0476 -1.90567,0.0567 -2.42293,0.5623 -0.88991,0.86993 -0.29176,1.89904 1.37185,2.36024 0.0411,0.0114 0.48293,-0.15102 0.9819,-0.36092 z m 6.42014,1.26353 c -1.31826,-0.40187 -1.49822,-0.73431 -0.96065,-1.77458 0.16446,-0.31825 0.31845,-0.60438 0.34218,-0.63582 0.0237,-0.0315 0.62374,0.23499 1.33335,0.59208 0.70961,0.3571 1.51598,0.64873 1.79193,0.64806 0.80023,-0.002 1.52404,-0.50795 1.52269,-1.06453 -0.001,-0.57981 -0.84804,-1.07101 -2.70253,-1.56795 -1.52311,-0.40814 -2.06862,-0.97164 -2.25393,-2.32825 -0.12112,-0.88681 -0.0263,-1.17126 0.63991,-1.92058 0.68688,-0.77248 0.97556,-0.89405 2.37093,-0.99838 1.22559,-0.0917 1.87881,0.009 2.85741,0.43872 l 1.26861,0.5575 -0.49767,0.59418 c -0.27372,0.32681 -0.51034,0.62555 -0.52583,0.66388 -0.0155,0.0383 -0.45978,-0.10943 -0.98731,-0.32834 -1.24,-0.51458 -2.40817,-0.50407 -2.8456,0.0256 -0.55807,0.67575 0.0148,1.21191 1.96509,1.83915 0.97542,0.31371 2.00309,0.77715 2.2837,1.02986 1.24441,1.12071 0.78009,3.4217 -0.84728,4.19876 -1.12582,0.53758 -3.05145,0.54999 -4.755,0.0307 z m 10.25269,0.025 c -1.5176,-0.67011 -2.78456,-2.66105 -2.78873,-4.38227 -0.004,-1.67337 1.19106,-3.6138 2.71772,-4.41262 1.14676,-0.60004 3.14612,-0.51577 4.40096,0.1855 0.59106,0.33032 1.07487,0.69159 1.07514,0.80281 2.7e-4,0.11123 -0.26892,0.49435 -0.59821,0.85137 -0.59296,0.64293 -0.60465,0.64436 -1.21958,0.14887 -1.38968,-1.11973 -3.46115,-0.28401 -4.02812,1.62513 -0.36721,1.23652 0.003,2.37176 1.03664,3.18098 0.82943,0.64919 1.81458,0.65634 2.83898,0.0206 0.77363,-0.48012 0.80998,-0.47974 1.5214,0.0157 0.40086,0.27917 0.72908,0.61352 0.7294,0.743 3.1e-4,0.12948 -0.51517,0.53933 -1.14552,0.9108 -1.29973,0.76592 -3.21199,0.89652 -4.54009,0.31009 z m 9.11696,-0.25781 c -2.93275,-1.54181 -3.21267,-6.20658 -0.48941,-8.15564 1.02824,-0.73593 3.74878,-1.01164 4.98086,-0.50478 1.82175,0.74943 3.12732,3.23899 2.78308,5.30696 -0.5408,3.24878 -4.23466,4.95159 -7.27453,3.35346 z m 4.14617,-1.91566 c 1.3175,-0.86782 1.26214,-3.55427 -0.0952,-4.61661 -0.74445,-0.58267 -2.18438,-0.70763 -3.01321,-0.26149 -1.28892,0.69383 -1.69822,3.12371 -0.73204,4.34593 0.98661,1.24805 2.44645,1.45034 3.8404,0.53217 z M 71.915319,109.4372 c -0.0099,-4.09532 0.03052,-4.5008 0.452067,-4.53048 1.716393,-0.12082 1.786036,-0.10282 1.870988,0.48479 0.08502,0.58781 0.08782,0.58812 0.793958,0.0851 0.389759,-0.27768 1.09552,-0.58418 1.568357,-0.68115 0.97338,-0.19959 1.295405,0.20722 1.025155,1.29512 -0.131095,0.5277 -0.315895,0.63099 -1.092876,0.61085 -0.688086,-0.0178 -1.12488,0.16684 -1.653485,0.69912 -0.69896,0.70381 -0.717373,0.80181 -0.681474,3.62618 l 0.03692,2.90283 -1.154356,0.003 -1.154367,0.003 z m 45.772781,-0.11067 -0.0109,-4.4979 1.05833,-0.003 c 0.97718,-0.002 1.05878,0.0532 1.06415,0.72504 0.003,0.40017 0.093,0.60557 0.19953,0.45643 0.36636,-0.5128 1.58328,-1.1583 2.33998,-1.24124 0.72106,-0.079 0.75804,-0.0317 0.76229,0.97526 0.004,0.99231 -0.0397,1.05327 -0.70461,0.9774 -0.83967,-0.0958 -2.2004,0.55269 -2.43127,1.1587 -0.0898,0.23578 -0.16031,1.66911 -0.15665,3.18517 l 0.007,2.75649 -1.05833,0.003 -1.05833,0.003 z"
       id="path2" /></g></svg>
